<?xml version="1.0" encoding="utf-8"?>
<!-- Generator: Adobe Illustrator 24.1.2, SVG Export Plug-In . SVG Version: 6.00 Build 0)  -->
<svg version="1.1" id="Слой_1" xmlns="http://www.w3.org/2000/svg" xmlns:xlink="http://www.w3.org/1999/xlink" x="0px" y="0px"
	 viewBox="0 0 310 310" style="enable-background:new 0 0 310 310;" xml:space="preserve">
<style type="text/css">
	.st0{fill:#B44D4F;}
	.st1{fill:#266974;}
	.st2{fill:none;}
	.st3{fill:#FFF577;}
</style>
<g>
	<circle class="st0" cx="156" cy="154" r="148"/>
</g>
<polygon class="st1" points="296.36,177.01 19.16,195.63 16.36,134.24 293.57,115.63 "/>
<g>
	
		<rect x="-34.06" y="107.48" transform="matrix(0.9976 -0.0698 0.0698 0.9976 -10.9005 11.216)" class="st2" width="378.4" height="108.4"/>
	<path class="st3" d="M52.99,134.99l1.39-0.75c0.9-0.57,1.81-0.92,2.81-1.06c0.28-0.09,0.65-0.04,0.94,0.08
		c0.44,0.11,0.82,0.38,1.34,0.56c-0.11,0.44-0.54,0.61-0.88,0.78c-1.94,1.15-3.65,2.56-5.51,3.85c-0.34,0.24-0.54,0.54-0.51,0.97
		c0.04,0.65-0.05,1.38,0,2.02c-0.04,0.51-0.01,0.94-0.57,1.19c-0.35,0.17-0.32,0.53-0.29,1.03c0.27-0.31,0.32-0.53,0.46-0.68
		c0.44,0.04,0.35,0.91-0.13,1.24c-0.07,0.08-0.14,0.08-0.13,0.15c-0.07,0.01-0.14,0.08-0.27,0.24c0.13,1.8,0.26,3.74,0.32,5.61
		c0.04,0.5-0.01,0.94-0.04,1.45c-0.26,1.46-0.01,2.89,0.3,4.31c0.3,1.13,0.44,2.21,0.59,3.35c0.06,0.79,0.18,1.58,0.24,2.37
		c0.04,0.58,0.01,1.15-0.02,1.81l-0.69-0.6l-0.2,0.3c-0.07,0.08-0.06,0.22-0.05,0.36c-0.57,0.11-1.31-0.13-1.25,0.74
		c-0.49,0.18-0.94-0.01-1.24-0.2c-0.46-0.33-0.91-0.59-1.22-1c-1.12-1.51-1.88-3.19-2.44-4.95c-0.02-0.29-0.19-0.64,0.23-0.88
		c0.07,0,0.04-0.44,0.03-0.65l-0.55-1.69c-1.15-2.95-1.58-6.02-2.01-9.17l-0.3-1.13c-0.28,0.16-0.56,0.26-0.77,0.42
		c-1.22,1.1-2.7,1.63-4.17,2.31c-1.12,0.44-2.39,0.89-3.59,1.26c-1.19,0.52-1.97,1.73-2.48,2.7c-1.07,2.24-2.52,4.22-3.6,6.31
		c-0.27,0.31-0.47,0.47-0.9,0.57c-1.64,0.26,0.54,1.55-1,1.15c-3.62,0.83-2.2-1.58-3.62-3.28c1.04-1.59,2.16-3.18,3.28-4.7l1.8-2.15
		c0.94-1.08-0.13,0.15,0.71-1.13l-0.69-0.53l-1.51-0.98c-0.38-0.33-0.55-0.68-0.44-1.2c0.49-0.25,0.93-0.07,1.38,0.19
		c0.67,0.31,1.41,0.55,2.15,0.79c0.15,0.06,0.5-0.04,0.64-0.19l2.11-2.82c0.13-0.23,0.19-0.45,0.32-0.6
		c1.79-2.29,2.97-4.97,4.39-7.45l4.92-9.08c0.71-1.2,1.06-2.38,1.04-3.68c0.03-1.59,0.21-3.12,0.4-4.65
		c0.47-2.63,1.37-5.22,2.35-7.67c0.38-0.82,0.59-0.91,1.39-0.75l3.29,0.56c0.36,0.05,0.73,0.17,1.04,0.43
		c0.61,0.54,1.23,1.07,1.78,1.68c0.24,0.34,0.42,0.77,0.51,1.12c0.47,1.56,0.44,3.15,0.26,4.75c-0.14,2.1-0.29,4.13-0.5,6.24
		c0.01,0.22-0.04,0.51-0.02,0.8c0.11,1.58-0.14,3.11-0.54,4.66c-0.35,1.18-0.34,2.41-0.47,3.64c-0.04,0.51,0,1.01,0.03,1.51
		L52.99,134.99z M42.51,140.92c0.49-0.25,0.61-0.55,0.65-1.06c-0.08-1.15-0.09-2.38-0.1-3.53c0.03-7.8-1.54-3.43-3.73,1.34
		C35.47,143.51,37.37,144.82,42.51,140.92z"/>
	<path class="st3" d="M94.76,162.6c-0.9,0.5-0.98,0.43-1.31-0.2c-0.09-0.21-0.47-0.47-0.63-0.68c0.12-0.3,0.33-0.46,0.39-0.68
		c0.03-0.65-0.1-1.36-0.07-2.02l-0.06-0.79c0.29-0.96,0.31-1.83,0.02-2.74c-0.01-0.14,0.18-0.52,0.16-0.81
		c0.06-0.15,0.19-0.37,0.11-0.51c-0.24-0.27-0.12-0.64,0.21-1.17c0.19-0.37,0.17-0.73,0.28-1.1c0.32-1.61,0.42-3.21,0.75-4.75
		c-0.84-2.68,4.39-12.51-0.6-10.71c-0.27,0.24-0.69,0.41-1.05,0.51c-5.07,2.81-4.67,2.42-5.75,7.55c-0.02,0.72-0.12,1.38-0.21,2.11
		c-0.05,0.29,0.04,0.57-0.08,0.94c-0.7,2.43-0.67,4.81-1.94,7.35c-0.14,0.08-0.13,0.15-0.2,0.3c-1.24,1.82-1.03,1.73-2.83,1.79
		c-0.29,0.02-0.58-0.1-0.79,0.06c-0.78,0.2-1.24-0.2-1.35-0.7c-0.12-0.71-0.17-1.43-0.08-2.23c0.42-3.35,1.11-6.86,1.88-10.31
		c1.06-3.39-1.95-1.02-2.36-3.73c-0.1-0.43-0.28-0.92-0.17-1.36c0.15-0.88,0.1-1.67,0.26-2.47c0.1-0.58,0.07-1.02-0.16-1.22
		l1.23-3.12c1.04,0.36,2.08-0.22,3.5-0.53c0.92-0.28,1.76-1.64,1.84-2.51c0.65-3.08,1.47-4.79,2.62-7.91c0.73-2,1.81-4.1,2.74-6.18
		c0.25-0.52,0.6-0.69,1.11-0.65l1.59,0.1c0.73,0.17,0.84,0.59,0.67,1.25c-0.35,1.18-0.85,2.23-1.07,3.25l-1.07,3.32
		c-3.69,7.04,0.73,6.3,5.98,3.91c0.12-0.37,0.32-0.53,0.38-0.82c0.5-2.13,0.99-3.39,1.7-5.6c0.1-0.58,0.48-1.33,0.44-1.91
		c-0.07-0.93,0.53-1.77,0.9-2.66c0.25-0.59,0.42-1.18,0.44-1.91c-0.04-0.5,0.27-1.25,0.45-1.84c0.63-1.34,1.33-2.69,1.95-4.11
		l2.95-0.21c1.51-0.11,2.9,0.16,4.09,0.72c1.12,0.5,1.75,1.32,1.56,2.71c-0.3,0.89-0.31,1.75-0.83,2.58c-1.25,2.83-2.06,5.7-2.8,8.5
		c-0.93,3.24,2.66,1.91,4.5,1.35c0.35-0.1,0.78-0.2,0.95,0.22c-1.35,0.31-2.83,0.78-4.03,1.15c-0.71,0.19-1.2,0.44-1.75,0.77
		c-0.76,0.49-1.07,1.23-1.22,2.11c0.36-0.02,0.94,0.01,1.37-0.02c0.22-0.02,0.57-0.11,0.78-0.27c0.86-0.13,1.7-0.41,2.58-0.32
		c0.36,0.05,1.15-0.08,1.64-0.26c0.57-0.11,1.07-0.15,1.72-0.19c-0.24-0.34-0.48-0.62-0.64-0.97c-0.1-0.35,0.09-0.8,0.19-1.38
		l0.5-0.04l0.13-0.15c-0.24-0.27-0.61-0.53-0.78-0.81c0.96,0.29,1.79,0.89,2.15,1.8c-0.14,0.08-0.28,0.16-0.49,0.18
		c-0.42,1.18,0.44,1.12,1.37,1.06c-0.95,0.86-1.63,0.4-2.42,0.53l1.28,0.7c-0.49,0.18-1.07,0.15-1.3,0.96l1.38,0.05
		c-0.49,0.18-0.84,0.42-1.12,0.51s-0.64,0.19-0.89,0.64c0.29-0.02,0.58,0.1,0.95,0.15c-1.69,0.62-3.38,1.25-5.05,2.09
		c-1.13,0.44-2.39,0.89-3.58,1.41c-0.99,0.36-1.51,1.04-1.74,1.93c-0.48,1.33-0.61,2.64-0.73,3.95c-0.15,0.95-0.23,1.89-0.52,2.85
		c-0.39,1.62-0.35,3.2-0.68,4.74c-0.19,1.46-0.37,2.91-0.71,4.38c0.01,0.14-0.2,0.3-0.32,0.53c0.01,0.14-0.12,0.37-0.04,0.44
		c0.5,0.98,0.08,2.23-0.13,3.33c0.01,0.22-0.04,0.44-0.03,0.58c0.29,0.99-0.22,1.96-0.52,2.92c-0.04,0.44-0.66,0.91-1.05,1.44
		c-0.36,0.03-0.71,0.12-0.92,0.21c-0.21,0.02-0.43,0.03-0.57,0.11c-0.87,0.93-1.97,0.79-2.84,1.71c-0.34,0.24-0.24-0.34-0.51-0.11
		c-0.2,0.23-0.33,0.46-0.4,0.46c-0.29,0.02-0.44-0.11-0.73-0.17L94.76,162.6z M85.17,131.66c-0.78,0.27-1.27,0.38-1.99,0.5
		c-0.85,0.27-1.04,0.58-1.34,1.54c0.36-0.02,0.8,0.09,1.23,0.06c0.44,0.04,0.52,0.25,0.69,0.6c-0.63,0.33-1.27,0.38-1.8,1.14
		c0.85-0.2,1.49-0.39,2.19-0.66L85.17,131.66z M90.77,130.26c0.22-0.02,0.36,0.05,0.43-0.03l2.92-1.58
		c-0.84,0.35-1.77,0.56-2.61,0.9C91.09,129.66,90.74,129.83,90.77,130.26z M92.55,130.93c-0.43,0.1-0.85,0.28-1.26,0.52
		C91.73,131.56,92.22,131.45,92.55,130.93z M97.2,130.31c-0.72-0.02-1.5,0.25-2.41,0.6c-0.49,0.25-0.98,0.43-1.56,0.47
		c-0.5,0.04-0.92,0.21-1.33,0.6c1.79-0.2,3.57-0.61,5.68-1.34L97.2,130.31z M95.82,128.1c-0.5,0.11-0.92,0.28-1.34,0.46
		c0.43-0.1,0.79-0.13,1.22-0.16C95.69,128.32,95.82,128.17,95.82,128.1z M97.21,131.47c-0.51-0.04-0.96-0.37-1.77,0.48
		C96.21,131.75,96.67,132.01,97.21,131.47z M117.64,124.41l0.07-0.08l0.01,0.14L117.64,124.41z"/>
	<path class="st3" d="M118.53,131.92l3-9.74c0.24-0.74,0.53-1.7,0.92-2.3l1.48-3.57c0.48-1.33,1.33-2.62,2.26-3.84
		c0.73-0.85,1.59-0.98,2.46-0.97c0.52,0.18,0.86-0.06,1.05-0.43c0.75-0.63,1.43-1.18,2.18-1.88c2.04-1.8,4.52-2.41,6.89-2.65
		c1.08,0,2.04,0.22,2.65,0.75c1,0.87,1.92,1.67,2.86,2.69c1.1,1.22,1.72,2.91,2.35,4.67c0.7,1.68,0.9,3.62,0.97,5.56
		c-0.04,1.52-0.36,3.13-0.92,4.47c-0.13,0.23-0.03,0.65-0.15,0.88c0.05,0.79,0.04,1.59,0.09,2.38c-0.1,1.67-0.56,3.36-0.52,4.94
		c-0.01,1.95-0.59,3.94-0.96,5.84c-0.13,1.24-0.7,2.43-1.04,3.68c-0.25,1.6-1.23,3.05-1.99,4.54c-0.05,0.36-0.45,0.83-0.64,1.2
		c-1.14,1.31-2.13,2.6-3.4,3.99c-1.14,1.31-2.65,2.42-4.48,2.98c-0.42,0.25-0.84,0.35-1.26,0.52c-0.76,0.49-1.48,0.54-2.14,0.37
		c-0.51-0.04-1.02-0.14-1.52-0.11c-1.23,0.01-2.41-0.34-3.38-0.92c-2.55-1.41-4.41-3.23-5.75-5.81c-1.16-2.08-1.69-4.57-1.87-7.09
		c-0.09-0.21-0.03-0.43-0.12-0.64C117.03,138.31,117.6,135.17,118.53,131.92z M123.72,133.87c-0.22,0.95-0.23,1.89-0.25,2.69
		c-0.01,0.87-0.18,1.6-0.12,2.39c0.3,1.21,0.74,2.26,0.89,3.4c0.64,1.98,1.21,3.81,1.62,5.66c0.31,1.28,0.74,2.26,1.86,2.9
		c0.45,0.26,1.04,0.36,1.45,0.04c0.9-0.5,1.88-0.93,2.62-1.7c2.56-2.63,4.88-5.61,6.44-9.11c1.75-3.88,2.83-8.07,3.32-12.36
		c0.25-2.69,0.39-5.73,0.35-8.47c-0.01-1.15-0.36-2-1.2-2.73c-0.62-0.61-1.43-0.84-2.42-0.48c-0.42,0.25-0.91,0.35-1.39,0.75
		c-0.28,0.09-0.62,0.4-0.88,0.86c-0.7,1.28-1.27,2.54-1.97,3.82c-0.44,0.9-1.04,1.66-1.33,2.69c-0.22,0.95-0.52,1.84-0.89,2.8
		c-0.21,0.16-0.27,0.31-0.25,0.52c-0.6,1.77-1.28,3.34-1.81,5.04c0.03,0.43-0.39,0.68-0.75,0.7c-0.57,0.04-1.14,0.22-1.59-0.03
		c-1.04-0.5-2.2-0.5-3.66-0.68C123.66,133.08,123.69,133.51,123.72,133.87z"/>
	<path class="st3" d="M152.14,129.57l3-9.74c0.24-0.74,0.53-1.7,0.92-2.3l1.48-3.57c0.48-1.33,1.33-2.62,2.26-3.84
		c0.74-0.85,1.59-0.98,2.46-0.97c0.52,0.18,0.86-0.06,1.05-0.43c0.75-0.63,1.43-1.18,2.18-1.88c2.04-1.8,4.52-2.41,6.89-2.65
		c1.08,0,2.04,0.22,2.65,0.75c1,0.87,1.92,1.67,2.86,2.69c1.1,1.22,1.72,2.91,2.35,4.67c0.7,1.68,0.9,3.62,0.97,5.56
		c-0.04,1.52-0.36,3.13-0.91,4.47c-0.13,0.23-0.03,0.65-0.16,0.88c0.05,0.79,0.04,1.58,0.09,2.38c-0.1,1.67-0.56,3.36-0.52,4.94
		c-0.01,1.95-0.59,3.94-0.96,5.84c-0.13,1.24-0.7,2.43-1.04,3.68c-0.25,1.6-1.23,3.05-1.99,4.54c-0.05,0.36-0.45,0.83-0.64,1.2
		c-1.14,1.31-2.13,2.6-3.4,3.99c-1.13,1.31-2.64,2.42-4.48,2.98c-0.42,0.25-0.84,0.35-1.26,0.52c-0.76,0.49-1.48,0.54-2.14,0.37
		c-0.51-0.04-1.02-0.15-1.52-0.11c-1.23,0.01-2.4-0.34-3.38-0.92c-2.55-1.41-4.41-3.23-5.75-5.81c-1.16-2.08-1.69-4.57-1.87-7.09
		c-0.09-0.21-0.03-0.43-0.12-0.64C150.64,135.96,151.21,132.81,152.14,129.57z M157.33,131.52c-0.22,0.95-0.23,1.89-0.25,2.69
		c-0.01,0.87-0.18,1.6-0.12,2.39c0.3,1.21,0.74,2.26,0.89,3.4c0.64,1.98,1.21,3.81,1.62,5.66c0.31,1.28,0.74,2.26,1.86,2.9
		c0.45,0.26,1.04,0.36,1.45,0.04c0.9-0.5,1.88-0.93,2.63-1.7c2.56-2.63,4.88-5.61,6.44-9.11c1.75-3.88,2.83-8.07,3.32-12.36
		c0.25-2.69,0.39-5.73,0.35-8.47c-0.01-1.15-0.36-2-1.2-2.73c-0.62-0.61-1.43-0.84-2.42-0.48c-0.42,0.25-0.91,0.35-1.39,0.75
		c-0.28,0.09-0.62,0.4-0.88,0.86c-0.71,1.28-1.27,2.54-1.97,3.82c-0.44,0.9-1.04,1.66-1.33,2.69c-0.22,0.95-0.52,1.84-0.89,2.8
		c-0.21,0.16-0.27,0.31-0.25,0.52c-0.6,1.77-1.28,3.34-1.81,5.03c0.03,0.43-0.38,0.68-0.74,0.7c-0.58,0.04-1.14,0.22-1.59-0.03
		c-1.05-0.5-2.2-0.5-3.66-0.68C157.27,130.73,157.3,131.16,157.33,131.52z"/>
	<path class="st3" d="M198.03,148.96c-0.74,0.77-1.93,1.36-2.65,1.27c-0.85,0.28-1.14,0.22-1.84,1.5c-0.33,0.38-0.54,0.61-0.98,0.43
		c-0.37-0.19-0.93,0.07-1.43,0.17c-2.12,0.72-0.26,0.45-2.39,0.89c-1.14,0.22-2.21,0.37-3.28,0.66c-0.22-0.13-0.44-0.11-0.51-0.04
		c-1.19,0.52-1.95,0.06-2.76-0.24c-0.44-0.11-0.53-0.4-0.64-0.89c0.03-0.58-0.01-1.15-0.26-1.64c-0.29,0.02-0.24-0.34-0.18-0.49
		c0.29-0.96,0.59-1.85,0.82-2.73c0.19-0.45,0.59-0.91,1.01-1.01c0.83-0.56,1.59-1.05,2.37-1.25c1.26-0.59,2.53-0.97,3.8-1.42
		c1.68-0.7-0.71,0.12,0.83-0.56c0.77-0.27,0.84-0.35,1.07-1.16l0.75-2.72l2.33-8.97c0.46-1.62,0.85-3.38,1.17-4.92
		c0.5-2.13,1.08-4.19,1.58-6.25c0.09-0.8,0.33-1.47,0.56-2.35c-0.35,0.1-0.56,0.18-0.85,0.2c-1.26,0.59-2.38,1.03-3.45,1.25
		c-0.43,0.03-0.86,0.06-1.38-0.05c-0.87-0.08-1.29-0.92-1.36-1.93l-0.1-1.44c-0.3-1.21-0.11-2.66-0.05-3.89
		c0.09-0.8,0.4-1.47,0.64-2.14c0.11-0.44,0.46-0.68,0.75-0.7c1.02,0.15,2.26-0.66,3.25-1.02l2.34-0.6c1.62-0.55,3.34-0.74,4.96-1.36
		c2.97-0.86,5.84-1.13,8.58-1.18c2.6,0.04,5.07,0.22,7.37,1.07c1.63,0.61,2.85,1.6,3.75,2.99c1.04,1.52,1.12,3.68,0.92,5.93
		c-0.09,1.81-0.69,3.59-1.21,5.43c-0.8,2-1.38,4.07-2.32,6.08c-0.45,0.83-0.9,1.58-1.34,2.48c-0.97,1.66-1.86,3.31-3.13,4.84
		c-0.85,1.21-1.78,2.43-2.79,3.52c-1.53,1.84-3.07,3.54-4.84,5.1c-2.93,2.44-5.82,4.52-8.87,6.32l-1.87,1.14
		c0.01,0.14,0.01,0.14-0.06,0.22L198.03,148.96z M210.12,130.93c2-2.38,3.85-4.82,5.25-7.51c1.07-2.31,1.85-4.46,1.92-6.63
		c0.11-0.44-0.13-0.86-0.42-0.91c-0.95-0.22-1.98-0.44-3-0.58c-3.42-0.34-6.94-0.09-10.89,1.12c-0.28,0.09-0.71,0.19-1.05,0.43
		c-0.14,0.01-0.34,0.31-0.26,0.45c-0.33,0.53-0.63,1.27-0.81,1.86c-0.43,2.12-1.01,4.18-1.58,6.25c-0.45,1.91-0.97,3.75-1.48,5.66
		c-0.21,1.17-0.27,2.33-0.61,3.65c-3.36,8.75,0.91,7.8,6.72,2.13C206.16,135.11,208.26,133.16,210.12,130.93z"/>
	<path class="st3" d="M230.5,108.65c0.21-0.16,0.26-0.38,0.4-0.53c0.62-0.48,0.87-1,0.91-1.51c1.15-1.09,2.3-1.17,3.36-1.53
		c2.11-0.87,4.15-1.52,6.34-2.25c1.34-0.45,2.7-0.62,3.73-0.33c1.31,0.2,2.09,1.01,1.91,2.54c-0.04,0.44-0.01,0.94,0.37,1.13
		c0.37,0.12,0.11,1.58,0,2.09c-2.1,0.94-5.64,0.83-6.42,3.19c-0.25,1.53-0.39,1.62-0.71,3.23l-1.45,8.11
		c-0.16,0.88-0.17,1.74-0.39,2.7l-1.24,4.92c-0.7,2.43-2.94,7.5,1.03,6.42c0.93-0.14,1.87-0.06,2.59-0.04
		c0.04,0.5-0.14,1.09,0.57,0.9c-0.12,0.3-0.24,0.67-0.16,0.81c0.26,0.63-0.11,1.52-0.28,2.26c-0.12,0.3-0.17,0.73-0.29,0.96
		c-0.53,0.76-0.7,1.35-0.52,1.84c0.17,0.35-0.03,0.58-0.45,0.83c-0.56,0.26-1.05,0.51-1.29,0.16c-0.39-0.41-1.04-0.43-1.97-0.22
		l-4.55,0.97c-1.85,0.42-3.76,0.91-5.54,1.25c-1.42,0.32-2.93,0.42-4.5,0.68c-0.5,0.04-0.8-0.09-1.17-0.28
		c-1.03-0.36-1.07-0.94-0.45-2.28l1.1-1.88c0.12-0.3,0.39-0.6,0.6-0.69c0.9-0.57,1.87-1.07,2.78-1.49s1.76-0.7,2.67-1.05
		c0.42-0.17,0.76-0.41,1.17-0.73l0.39-0.6c0.35-1.25,0.62-2.5,0.9-3.67c0.18-1.53,0.45-2.92,0.98-4.62
		c0.13-0.15,0.19-0.45,0.39-0.68c0.84-1.43,1.04-2.74,1.24-3.98c0.22-1.03,0.3-1.9,0.73-2.94c0.24-0.67,0.13-1.24,0.23-1.89
		c0.09-0.73-0.03-1.44,0.14-2.18c0.26-1.46,0.14-1.09,0.4-2.48c0.96-4.9-0.65-3.13-4.17-3.9c-0.14,0.01-0.03-1.51-0.18-1.58
		c0,0,1.72-1.13,1.66-1.05C231.73,108.63,230.25,109.17,230.5,108.65z M224.04,146.27c0.72-0.05,1.37-0.02,2.09-0.07l3.78-0.7
		c0.71-0.12,1.5-0.25,2.21-0.44c0.63-0.26,1.34-0.38,2.04-0.79c0.56-0.26,1.07-0.22,1.64-0.33c0.63-0.26,0.93-0.14,1.68-0.77
		c-0.5,0.04-0.87-0.01-1.23,0.01c-0.36-0.05-0.79,0.06-1.22,0.16c-0.36,0.03-0.78,0.2-1.08,0.08l1.92-0.35
		c-0.32-0.41-0.67-0.24-1.09-0.14c-0.85,0.28-1.7,0.41-2.63,0.62c-0.21,0.09-0.35,0.1-0.56,0.26c-0.69,0.41-1.26,0.52-1.9,0.71
		c-1.64,0.26-3.35,0.67-4.77,0.91c-0.35,0.1-0.78,0.2-1.1,0.73L224.04,146.27z M233.78,110.15l-0.01-0.14
		c-0.14,0.01-0.21,0.02-0.35,0.1c-0.14,0.01-0.29,0.02-0.43,0.1c0,0.07,0,0.07-0.06,0.15L233.78,110.15z M243.73,107.87
		c-0.87-0.08-1.34-0.56-2.37,0.24c-0.19,0.37-0.1,0.58,0.39,0.48L243.73,107.87z"/>
	<path class="st3" d="M255.63,117c-1.2-1.65-1.97-3.47-1.62-5.66c0.31-1.83,0.99-3.39,2.28-4.63c1.61-1.7,3.41-2.84,5.44-3.7
		c3.23-1.24,6.58-1.9,9.98-1.78c0.87,0.01,1.75,0.24,2.56,0.47c0.82,0.38,1.31,1.21,1.6,2.2l0.84,2.68c0.1,0.43,0.27,0.77,0.45,1.27
		c0.21,0.92-0.02,1.73-0.63,2.43c-1,1.23-2.18,1.81-3.57,1.62c-0.95-0.15-1.82-0.16-2.68-0.1c-0.99-1.81-20.17,5.81-8.92,5.68
		c1.67,0.1,3.4,0.05,5.1-0.29c0.85-0.28,1.79-0.27,2.73-0.12c0.44,0.11,0.67,0.31,0.86,0.88l0.01,0.14
		c-0.69,0.41-1.16,0.95-1.62,1.63c-0.4,0.53-0.95,0.93-1.5,1.26c-3.75,2.07-13.34,9.52-14.63,14.74c-0.17,0.73,0.03,2.52,0.72,3.05
		c0.69,0.53,1.49,0.69,2.29,0.78c1.59,0.1,3.1,0,4.68-0.18c1.99-0.43,4.14-0.72,6.12-1.22l4.28-0.73c1.21-0.3,2.47-0.82,3.5-1.54
		c0.54-0.47,0.69-0.48,1.01,0.07c0.55,0.61,1.04,1.37,1.32,2.36c-0.35,0.1-0.63,0.26-0.9,0.5c-0.6,0.76-1.2,1.46-2.03,1.95
		c-1.24,0.81-2.7,1.7-4.03,2.16c-0.77,0.27-1.49,0.39-2.27,0.52c-1,0.21-1.84,0.49-2.71,0.55c-0.92,0.21-1.79,0.27-2.71,0.48
		c-0.36-0.05-0.76,0.42-1.14,0.22c-0.37-0.12-0.72-0.02-1.07,0.15c-1.57,0.25-3.16,0.22-4.63-0.18c-1.84-0.52-3.43-1.56-4.62-3.07
		c-0.18-0.49-0.49-0.83-0.65-1.11c-1.77-2.55-2.04-5.42-1.24-8.43c0.68-2.65,1.97-4.9,3.86-6.69c1.75-1.78,9.71-5.66,5.3-6.79
		C256.72,118.15,256.17,117.61,255.63,117z"/>
</g>
<g>
	<rect x="62.9" y="155.75" class="st2" width="242.14" height="67.71"/>
	<path class="st3" d="M157.37,178.55h-2.84l-11.7-17.97h-0.12c0.16,2.11,0.23,4.04,0.23,5.8v12.17h-2.3v-21.42h2.81l11.68,17.9h0.12
		c-0.02-0.26-0.06-1.11-0.13-2.54s-0.09-2.45-0.07-3.07v-12.29h2.33V178.55z"/>
	<path class="st3" d="M183.12,178.55h-11.94v-21.42h11.94v2.21h-9.45v6.9h8.88v2.2h-8.88v7.88h9.45V178.55z"/>
	<path class="st3" d="M202.38,178.55h-2.49v-19.2h-6.78v-2.21h16.05v2.21h-6.78V178.55z"/>
	<path class="st3" d="M221.59,172.65v-0.79c0-1.14,0.18-2.08,0.53-2.82s1.01-1.52,1.96-2.34c1.33-1.12,2.17-1.97,2.51-2.53
		c0.35-0.57,0.52-1.25,0.52-2.05c0-1-0.32-1.77-0.96-2.31c-0.64-0.54-1.56-0.81-2.76-0.81c-0.77,0-1.52,0.09-2.26,0.27
		c-0.73,0.18-1.57,0.51-2.52,0.99l-0.86-1.98c1.85-0.97,3.77-1.45,5.79-1.45c1.87,0,3.32,0.46,4.35,1.38s1.55,2.21,1.55,3.88
		c0,0.71-0.09,1.34-0.29,1.88c-0.19,0.54-0.47,1.05-0.84,1.54c-0.37,0.48-1.17,1.26-2.4,2.34c-0.99,0.84-1.64,1.54-1.96,2.09
		c-0.32,0.56-0.48,1.3-0.48,2.23v0.48H221.59z M220.88,177c0-1.33,0.59-1.99,1.76-1.99c0.57,0,1,0.17,1.31,0.51
		c0.31,0.34,0.46,0.83,0.46,1.48c0,0.63-0.16,1.11-0.47,1.46c-0.31,0.35-0.75,0.52-1.3,0.52c-0.51,0-0.93-0.15-1.26-0.46
		C221.04,178.21,220.88,177.7,220.88,177z"/>
</g>
<g>
</g>
<g>
</g>
<g>
</g>
<g>
</g>
<g>
</g>
<g>
</g>
<g>
</g>
<g>
</g>
<g>
</g>
<g>
</g>
<g>
</g>
<g>
</g>
<g>
</g>
<g>
</g>
<g>
</g>
</svg>
