<?xml version="1.0" encoding="utf-8"?>
<!-- Generator: Adobe Illustrator 24.1.2, SVG Export Plug-In . SVG Version: 6.00 Build 0)  -->
<svg version="1.1" id="Слой_1" xmlns="http://www.w3.org/2000/svg" xmlns:xlink="http://www.w3.org/1999/xlink" x="0px" y="0px"
	 viewBox="0 0 401.22 555.46" style="enable-background:new 0 0 401.22 555.46;" xml:space="preserve">
<style type="text/css">
	.st0{display:none;fill:#318792;fill-opacity:0.9412;stroke:#000000;stroke-width:3.8017;}
	.st1{display:none;fill:none;stroke:#000000;stroke-width:1.408;}
	.st2{display:none;fill:#FFFFFF;stroke:#000000;stroke-width:4.2241;}
	.st3{display:none;fill:#FFFFFF;stroke:#000000;stroke-width:3.8017;}
	.st4{fill:#318792;fill-opacity:0.9412;stroke:#000000;stroke-width:3.8017;}
	.st5{fill:none;stroke:#000000;stroke-width:1.408;}
	.st6{stroke:#000000;stroke-width:1.408;}
	.st7{display:none;fill:#FFFCAC;stroke:#FFFCAC;stroke-width:1.408;}
	.st8{fill:#FFFCAC;stroke:#FFFCAC;stroke-width:1.408;}
</style>
<g id="layer1" transform="translate(0 -287.36)">
	<path id="path3109" class="st0" d="M498.51,791.54l12.11-23.43c92.11,3.07,191.72,9.36,254.98-16.33
		c6.18,17.11,9.38,32.53,19.23,44.03c20.68-16.16,9.43-17.74,31.34-31.96l2.85-12.78l11.4-11.36l-2.85-31.24l13.53-44.74l2.85-15.62
		l3.56-22.72l4.99-0.71l-10.68-43.32l8.55-14.2c-8.74-30.25-14.32-57.35-21.37-85.92c-7.64-24.42-23.51-57.05-38.46-88.76
		c-13.14-16.06-32.78-30.33-53.42-42.61l4.99-18.46c-1.92-12.55-4.94-25.09-1.42-37.64L725,288.08l-14.24-7.1
		c-8.42,5.55-14.77,4.89-21.37,4.97l-9.97,7.81c-4.02-7.12-18.19-4.12-29.2-4.26c-10.1-0.85-16.48-3.18-17.09-7.81l-51.99,4.26
		l-20.66-7.1l-30.63,2.13l-7.12,27.69l3.56,16.33c-9.74,13.97-6.84,20.38-7.83,29.11l-29.2,9.23l-30.63,51.13l-27.07,96.57
		l-2.14,36.21l0.71,12.78l-1.42,10.65l-5.7,12.78l-1.42,7.81l-8.55,9.23l9.97,19.88l-4.99,7.1l6.41,22.01h7.12l-0.71,13.49
		l12.82,20.59v11.36l6.41,8.52v9.94l7.83,14.91l11.4,16.33l7.12,5.68C480.41,766.33,488.88,779.32,498.51,791.54L498.51,791.54z"/>
	<path id="path2993" class="st1" d="M473.58,750.35c14.51-4.44,27.03-12.84,37.75-24.85c5.34-5.17,6.74-11.65,0.71-20.59
		c92.27,22.22,177.43,13.04,256.4-23.43"/>
	<path id="path2995" class="st2" d="M770.58,707.74l3.56-25.56l4.27-4.97c-3.54-14.86-0.95-27.27,4.99-38.35L772,616.84l7.83-20.59
		l-12.82-31.96c1.8,18.6,1.49,35.1-4.27,46.16c9.47,14.27,24.31,53.56,0.71,58.23l7.83,14.91L770.58,707.74z"/>
	<path id="path3765" class="st3" d="M502.69,686.32l10.77-18.34c-11.78-5.97-19.59-18.27-11.4-56.1l2.05-44.32
		c-4.72,20.7-7.11,26.33-10.6,37.22v13.49l-4.57,10.27l5.37,33.58C503.76,668.11,499.1,680.54,502.69,686.32L502.69,686.32z"/>
	<path id="path3766" class="st1" d="M503.06,565.79c2.52-28.35,2.05-57.07-3.02-86.36"/>
	<path id="path2998" class="st1" d="M519.87,356.95c18.25,24.86,48.43,38.17,80.13,52.19c13.84-0.04,28,1.8,40.95-3.55
		c26.34-10.11,54.46-22.93,77.99-43.32l19.23-14.91"/>
	<path id="path3002" class="st1" d="M766.31,562.88c-5.79-3.85-14.82-3.49-11.75-18.82l-5.34-13.14c2.11-10.95,2.9-24.51,8.55-28.4"
		/>
	<path id="path3004" class="st1" d="M770.93,739.34c11.24,10.95,24.48,19.57,47.01,17.4"/>
	<path id="path3010" class="st1" d="M763.81,463.47c-6.89-13.23-17.65-25.69-20.3-39.77l5.34-9.94c-3.88-1.05-7.13-5.69-8.19-22.72
		l-7.83-2.49c-2.08-6.97-6.21-13.53-16.74-22.37"/>
	<path id="path3012" class="st1" d="M499.29,464.55c6.96-12.67,13.92-14.75,20.88-37.66c11.09-18.71,19.22-35.59,23.57-47.21"/>
	<path id="path3784" class="st4" d="M71.96,667.72c-3.89,16.35-1.16,22.83,0,31.63c0.73,18.91-2.87,18.67-7.05,24.1
		c0.36,11.66,2.62,23.57,9.57,22.09l-4.03,21.09L79,835.86c38.65,10.31,99.05,1.62,142.66,2.01c51.86-4.15,88.16-6.9,105.63-29.01
		c-0.43-12-1.37-18.24-3-23.08c16.6-34.56-10.03-115.03-22.68-159.73l8.06,29.12c26.94,15.86,22.81,34.82,24.17,53.22
		c5.57,14.06-0.47,29.12-2.52,43.18l24.68,1l20.14-4.02l18.13,5.02l-5.04-34.65c3.36-6.76,6.71-8.2,10.07-31.63
		c0.57-68.99-23.84-147.83-48.35-226.96c-13.5-40.41-7.46-93.76-84.61-116.49l-6.04-18.08c3.36-8.87-4.05-18.93-12.59-29.12
		c-18.98-7.11-119-18.64-173.75,19.08c-5.1,23.16,3.67,28.35,10.07,36.15l-3.02,13.05l-55.4,39.16
		C8.98,442.49,0.97,484.9,4.47,532.65l7.05,42.68c-7.59,50.79-20.96,105.57,9.07,166.7c-20.32,19.91-4.23,23.73,3.02,33.64
		c-1.8,10.75,4.71,22.09,6.55,31.63c18-5.67,46.31-20.6,52.38-15.57c-8.21-7.51-20.56-15.54-12.09-25.61"/>
	<path id="path3786" class="st5" d="M77,526.62c-7.62,31.51-10.35,53.92,5.04,80.34l2.01,35.15l-8.06,8.54
		c6.16,6.41,1.56,4.92,1.51,19.08l-5.54-3.01"/>
	<path id="path3788" class="st5" d="M304.64,627.05c-14.25-0.37,10.95-62.63,9.57-104.44v-87.87"/>
	<path id="path3790" class="st1" d="M186.29,385.53l2.01,13.56l0.5,16.07c12.3,69.29,24.1,142.1,25.68,211.39l6.55,127.54l0.7,57.21
		"/>
	<path id="path3792" class="st1" d="M214.49,811.3c-0.68-107.51-1.42-238.14-24.68-353.47c-3.8-23.26-3.06-46.53-14.1-69.79"/>
	<path id="path3794" class="st5" d="M147,388.54c20.93,27.32,16.42,145.64,13.09,138.08"/>
	<path id="path3796" class="st5" d="M206.43,385.03l6.04,13.56l5.54,0.5c31.91,39.2,31.13,49.88,31.73,61.76"/>
	<path id="path3798" class="st5" d="M247.73,458.84c-0.5,9.54,1.01,8.03,1.01,8.03c10.35,16.2,5.19,35.82,7.05,53.22"/>
	<path id="path3009" class="st5" d="M175.45,811.8c32.36,6.18,52.22,2.08,74.54-0.5"/>
	<path id="path3013" class="st6" d="M160.29,527.64l4.9,5.41l-2.94,4.53l3.38,6.48l-6.32-5.59c-0.37-3.6-2.05-6.98,0.18-11.01"/>
	<path id="path3015" class="st6" d="M162.87,381.45l6.05-0.36l0.18,5.77l6.05,0.98l-3.47,1.95l-2.31,0.44l-4.45,1.6l-3.12-3.73
		l0.8-6.12L162.87,381.45z"/>
	<path id="path3017" class="st5" d="M79,362.63c6.38,20.69,37.97,24.63,78.34,22.72"/>
	<path id="path3019" class="st5" d="M192.96,385.36c84.27-35.33,73.45-42.36,71.22-44.03"/>
	<path id="path3021" class="st5" d="M23.09,778.75c15.2-6.35,31.29-30.57,45.58-18.82"/>
	<path id="path3023" class="st5" d="M334.34,708.81c25.48-5.62,52.45-12.84,57.69,3.55"/>
	<path id="path3793" class="st5" d="M92.54,328.9c52.71,49.73,52.29,32.61,77.28,53.26"/>
	<path id="path3795" class="st5" d="M187.98,380.39l21.01-34.44"/>
	<path id="path3799" class="st5" d="M211.12,345.24c22.31-9.8,3.9-29.15-6.77-24.14c15.4,7.55,13.57,16.48,5.34,25.92"/>
	<path id="path3973" class="st5" d="M259.31,629.06l40.29,62.26"/>
	<path id="path3975" class="st5" d="M162.62,634.08c-42.74,56.23-51.37,66.28-51.37,66.28"/>
	<path id="path3028" class="st7" d="M531.27,708.39c-1.82-60.48,5.66-180.25-5.04-316.33c-2.07-42.67-16.97-39.28-36.26-25.11
		l-30.81,48.62l-26.07,97.65l-2.43,60.25l-12.38,26.87l2.19,21.68l3.56,22.09l11.55,22.09c12.71,11.38,8.94,22.76,13.09,34.14
		l4.62,17.54l13.6,24.1l9.78,4.61l4.24-0.05c-18.75-46.14-47.88-88.46-47.84-142.6c15.79-56.4,26.9-108.6,36.05-168.97
		c15.47-14.7,27.07-18.93,29.92,14.32c9.05,44.18,7.02,83.94,7.05,124.53c-5.85,44.7-9.64,93.38,10.58,93.9l-13.09,22.09l8.56,16.57
		L531.27,708.39z"/>
	<path id="path3022" class="st1" d="M499.29,464.55c6.96-12.67,13.92-14.75,20.88-37.66c11.09-18.71,19.22-35.59,23.57-47.21"/>
	<path id="path3797" class="st7" d="M737.1,696.38c0.28-0.48-20.29-131.31-8.55-322.39c15.89-26.54,15.61-11.27,28.49-9.94
		c66.05,54.03,70.23,148.09,88.32,204.51l-7.12,26.98c11.98,16.78,12.65,31.02,5.7,44.03l-19.94,73.85l1.42,26.98l-12.82,12.78
		l-8.55,4.26l18.52-139.18L801.2,480.5c-5.91-19.67-19.65-58.52-44.16-59.65c-14.82,52.97,0.79,97.77,4.27,143.44l1.42,45.45
		c6.86,23.38,23.35,50.59-5.7,59.65l9.97,18.46L737.1,696.38z"/>
	<path id="path3800" class="st1" d="M763.81,463.47c-6.89-13.23-17.65-25.69-20.3-39.77l5.34-9.94c-3.88-1.05-7.13-5.69-8.19-22.72
		l-7.83-2.49c-2.08-6.97-6.21-13.53-16.74-22.37"/>
	<path id="path3802" class="st1" d="M766.31,562.88c-5.79-3.85-14.82-3.49-11.75-18.82l-5.34-13.14c2.11-10.95,2.9-24.51,8.55-28.4"
		/>
	<path id="path3804" class="st8" d="M34.85,773.07c-9.87-29.94-1.9-19.88-2.85-29.82c-17.07-58.09-8.23-109.14-5.7-161.9
		c8.48-54.44-12.31-124.43,22.79-156.94c25.4-6.72,29.2-33.28,35.61-47.58c-6.74-13.01-4.09-2.63-7.12-6.39l-50.19,35.55
		c-41.51,79.73-12.55,156.23-13.91,166.12c-3.1,22.68-9.8,56.35-9.11,88.08c1.11,50.99,17.51,77.43,18.37,82.35
		c-19.75,18.98-1.68,21.81,0.71,31.96L34.85,773.07z"/>
	<path id="path3806" class="st8" d="M267.74,346.3c64.08,12.8,72.13,77.31,86.89,135.63c20.71,57.59,29.07,93.28,32.76,120.72
		c14.45,87.35,8.05,86.92,6.41,106.52l-12.82-7.82c-2.03-71.48-21.31-143.45-44.16-218.71c-22.32-43.4-37.86-110.29-54.84-102.25
		C247.4,360.44,257.3,359.04,267.74,346.3L267.74,346.3z"/>
</g>
</svg>
