<?xml version="1.0" encoding="utf-8"?>
<!-- Generator: Adobe Illustrator 24.1.2, SVG Export Plug-In . SVG Version: 6.00 Build 0)  -->
<svg version="1.1" id="Слой_1" xmlns="http://www.w3.org/2000/svg" xmlns:xlink="http://www.w3.org/1999/xlink" x="0px" y="0px"
	 viewBox="0 0 200 300" style="enable-background:new 0 0 200 300;" xml:space="preserve">
<style type="text/css">
	.st0{fill:#4D2B24;}
	.st1{fill:#C6373F;}
	.st2{fill:#AE3338;}
	.st3{fill:#E3AB88;}
	.st4{fill:#A11515;}
	.st5{fill:#FFFFFF;}
</style>
<g>
	<path class="st0" d="M181.02,191.28c-0.18-0.66-1.13-3.46-1.42-4.2c-0.44-1.35-0.88-2.71-1.31-4.07
		c-1.28-4.46-2.52-8.93-3.68-13.42c-2.74-10.59-4.94-21.39-7-32.14c-0.95-4.98-7.46-32.5-8.12-34.35c-0.68-1.89-1.7-3.51-3.11-4.84
		c-1.62-1.52-4.26-3.04-6.13-4.22c-1.04-0.65-4.96-3.08-5.61-3.38c0.76-1.51,2.09-3.55,2.8-5.08c1.61-3.46,3.43-6.93,4.64-10.52
		c0.7-2.55,1.37-5.11,1.61-7.73c-0.29-4.46-0.87-8.88-1.88-13.31c-1.67-7.33-5.06-13.41-9.57-19.34
		c-4.5-5.92-10.44-10.4-17.82-11.76c-6.96-1.28-14.2,1.18-20.39,4.2C91.73,33.1,80.48,43.05,74.19,55.31
		c-0.17,0.33-0.34,0.68-0.5,1.03c-0.89,2.62-0.51,4.11-0.24,6.25c0.33,2.62,1.04,5.17,1.72,7.72c0.81,3.03,1.69,6.04,2.67,9.02
		c0.32,0.82,0.64,1.64,0.96,2.45c1.57,4,3.33,8.12,5.33,12.13c-1.73,0.8-10.92,4.96-13.69,6.41c-1.86,0.98-4.07,2.47-5.37,4.15
		c-1.2,1.56-1.69,4.24-2.42,6.07c-4.89,12.19-11.13,23.71-18.01,34.88c-3.33,5.39-7.11,10.58-11.14,15.46
		c-2.06,2.5-4.02,5.04-6.2,7.44c-0.93,1.03-2.19,2.05-3.24,3.15c-0.4,0.7-0.7,1.44-0.79,2.2c0.22,3.24,2.45,6.27,4.55,8.64
		c1.42,1.62,2.99,3.1,4.58,4.54c4,2.82,8.98,5.38,9.14,5.26c2.42,1.03,4.94,1.77,7.46,2.08c-0.72,2.59-13.32,61.22-13.78,63.88
		c2.33,2.89,5.46,4.63,8.87,5.91c0.34,0.1,0.67,0.2,0.97,0.29c9.23,2.89,18.99,4.61,28.49,6.38c9.11,1.7,18.49,2.77,27.75,3.2
		c4.57,0.22,9.06,0.19,13.62-0.25c2.15-0.21,4.27-0.55,6.38-0.99c0.47-0.1,0.96-0.21,1.46-0.33c1.17-0.32,2.35-0.62,3.53-0.91
		c0.88-0.22,1.69-0.41,2.39-0.84c0.31-0.71,0.56-1.45,0.76-2.2c0.06-0.31,0.12-0.63,0.19-0.95c0.6-2.66,13.12-61.34,13.56-64.04
		c1-6.03,1.75-12.04,2.33-18.12c0.02-0.21,0.04-0.42,0.05-0.63c0.09-0.59,0.17-1.18,0.23-1.78c0.17,1.99,0.37,3.97,0.59,5.95
		c0.79,6.9,1.8,13.76,2.74,20.63c-0.02,0-0.04-0.01-0.06-0.01l0.02,0.17c0.17,0.4,0.43,0.78,0.79,0.99c1.1,0.03,2.22-0.11,3.31-0.17
		c1.44-0.09,2.88-0.15,4.31-0.35c2.79-0.39,5.57-1.03,8.29-1.76c3.39-0.92,6.7-2.06,9.91-3.43c1.25-0.62,2.48-1.28,3.64-1.96
		c1.5-0.88,3.95-2.08,4.22-3.8C182.82,196.44,181.73,193.92,181.02,191.28z"/>
	<path class="st1" d="M150.31,208.78c-0.17-2.72-0.75-5.44-0.96-8.15c-0.28-3.7-0.9-7.35-1.31-11.05c-0.11-0.99-0.21-1.98-0.31-2.97
		c-0.56-4.15-0.98-8.31-1.21-12.49c-0.2,0.12-0.48-19.02-0.53-25.14c-0.03-3.25-0.04-6.5-0.06-9.75c-0.35-8.99-0.5-17.98-1.24-26.94
		c-0.46,12.51-0.23,25.06-0.24,37.59c0,5.85,0.49,24.71,0.61,29.44c-0.07,0.86-1.88,15.73-2.71,21.1
		c-0.39,2.51-12.87,61.01-13.34,63.51c-0.23,1.23-0.69,4.86-1.21,6.09c-1.85,0.14-3.72,0.57-5.58,1c-1,0.01-2-0.02-3.02-0.09
		c-4.29-0.31-8.43-1.36-12.57-2.45c-9.02-2.37-17.73-5.65-26.59-8.51c-8.43-2.71-16.98-5.31-25.85-6.04
		c-5.57-0.46-12.57,0.03-18.02,2.62c0.63-2.29,13.34-60.55,14.09-62.79c0.12-0.17,0.19-0.34,0.14-0.43
		c4.16-12.25,9.93-23.85,14.92-35.83c3.99-9.58,8.21-19.16,11.07-29.11c0.66-2.86,1.41-5.69,1.91-8.58
		c0.37-2.12,1.05-4.88,0.76-7.23c-0.47,3.13-1.1,6.21-1.85,9.26c-0.66-2.48-1.73-4.96-2.6-7.16c-0.79-2.02-1.64-3.98-2.51-5.93
		c-0.72-1.31-1.49-2.6-2.31-3.85c0.72,3.25,2.36,6.5,3.46,9.65c1.17,3.35,2.19,6.69,3.24,10.06c-3.23,11.79-8.21,23.07-12.92,34.33
		c-3.06,7.32-6.53,14.48-9.55,21.82c-0.47,1.14-0.97,2.29-1.47,3.45c-0.95,2.73-2.11,5.38-2.98,8.15c-0.68-0.48-1.91-0.87-2.5-1.21
		c-1.71-0.99-3.29-2.12-4.88-3.28c-3.46-2.51-6.52-5.56-9.59-8.52c-1.56-1.51-2.94-3.16-4.43-4.74c-0.79-0.84-1.94-2.2-3.24-2.15
		c-0.08,0-0.15,0.01-0.22,0.02c0.96-0.83,1.75-1.94,2.64-2.85c3.63-3.72,6.69-7.96,9.97-11.97c3.55-4.35,6.71-9.2,9.64-13.98
		c2.82-4.61,6.18-9.26,8.39-14.21c2.42-5.41,5.15-10.69,7.53-16.12c1.01-2.3,1.84-4.68,2.77-7.01c1.12-2.82,3.69-4.2,6.33-5.58
		c2.74-1.44,5.29-3.1,8.17-4.27c1.18-0.48,2.35-1,3.5-1.55c0.27-0.13,0.55-0.26,0.82-0.39c1.68,3.31,3.54,6.53,5.62,9.53
		c-2.27-4.3-4.2-8.77-5.9-13.33c-1.38-2.96-2.68-5.97-3.87-8.97c-1.68-4.25-3.14-8.58-4.59-12.91c-0.76-2.28-1.34-4.58-1.72-6.95
		c-0.23-1.44-0.22-2.67-0.09-3.94c0.06-0.19,0.1-0.38,0.17-0.57c1.27-3.72,3.89-7.13,6.26-10.21c4.7-6.12,10.47-11.42,17.04-15.51
		c6.88-4.27,15.18-8.34,23.49-7.91c7.91,0.41,14.16,4.78,19.21,10.59c4.98,5.73,8.47,12.3,10.37,19.64
		c1.26,4.85,1.89,9.79,2.16,14.75c-0.81,6.3-3.85,12.08-6.6,17.85c-0.5,1.05-1.02,2.09-1.55,3.13c0,0,0,0-0.01-0.01
		c-1.2,2.92-2.74,5.72-4.22,8.5c-0.96,1.8-2.1,3.48-3.03,5.29c-0.28,0.55-0.58,1.09-0.88,1.63c3.13-4.36,5.86-9.03,8.32-13.81
		c1.17,0.91,2.61,1.7,3.69,2.41c1.87,1.23,3.66,2.52,5.48,3.82c3.72,2.65,5.01,6.54,6.31,10.71c1.46,4.64,2.14,9.6,3.13,14.35
		c1.09,5.25,2.17,10.5,3.18,15.76c2.06,10.72,4.19,21.55,7.07,32.09c1.31,4.77,2.79,9.48,4.17,14.23c0.34,1.16,0.72,2.29,1.14,3.42
		c0.21,0.73,0.43,1.45,0.66,2.17c0.82,2.57,2,5.27,2.68,7.94c-0.02,0.02-0.04,0.03-0.07,0.05c0.02,0.05,0.03,0.09,0.04,0.14
		c-0.97,0.04-1.99,0.44-2.89,0.57c-1.74,0.25-3.44,0.79-5.16,1.13c-3.64,0.72-7.19,1.74-10.74,2.83c-3.36,1.04-6.7,2.27-9.83,3.87
		C152.61,207.26,151.18,207.9,150.31,208.78z"/>
	<path class="st2" d="M52.53,184.2c0.5-1.16,1-2.31,1.47-3.45c3.02-7.35,6.49-14.5,9.55-21.82c4.71-11.26,9.69-22.55,12.92-34.33
		c-0.74-2.39-1.48-4.78-2.26-7.17c-0.81,7.27-2.86,14.36-5.76,21.1c-3.47,8.04-7.97,15.51-12.25,23.13
		c-4.02,7.15-8.45,14.09-12.15,21.4c-0.72,1.42-1.46,3.01-2.36,4.44c0.16,0.12,0.32,0.24,0.48,0.36c1.6,1.16,3.17,2.29,4.88,3.28
		c0.59,0.34,1.82,0.73,2.5,1.21C50.42,189.58,51.58,186.93,52.53,184.2z"/>
	<path class="st2" d="M182.13,198.21c-0.68-2.67-1.87-5.37-2.68-7.94c-0.23-0.72-0.45-1.45-0.66-2.17c-0.41-1.13-0.8-2.26-1.14-3.42
		c-1.38-4.75-2.86-9.45-4.17-14.23c-2.88-10.53-5.01-21.36-7.07-32.09c-1.01-5.26-2.09-10.51-3.18-15.76
		c-0.99-4.76-1.67-9.71-3.13-14.35c-1.31-4.16-2.59-8.05-6.31-10.71c-1.82-1.3-3.61-2.59-5.48-3.82c-1.08-0.71-2.53-1.5-3.69-2.41
		c-2.46,4.79-5.2,9.45-8.32,13.81c0.3-0.54,0.59-1.08,0.88-1.63c0.94-1.81,2.07-3.5,3.03-5.29c1.48-2.78,3.02-5.58,4.22-8.5
		c0.01,0,0.01,0.01,0.01,0.01c0.53-1.03,1.05-2.07,1.55-3.13c2.74-5.77,5.79-11.54,6.6-17.85c-0.27-4.96-0.9-9.9-2.16-14.75
		c-1.9-7.34-5.39-13.91-10.37-19.64c-0.44-0.51-0.9-1-1.35-1.48c1.81,2.6,3.3,5.44,4.43,8.42c3.13,8.24,5.92,18.58,2.64,27.18
		c-0.1,0.25-0.45,0.31-0.62,0.09c-3.22-4.14-6.6-8.38-10.96-11.39c-3.47-2.4-7.48-4.3-11.48-5.97c3.64,2.37,7.1,5.08,10.02,8.26
		c3.42,3.72,6.9,9,5.12,14.29c-1.19,3.51-3.89,6.68-6.42,9.32c-2.79,2.91-5.86,5.52-9.11,7.9c-3.31,2.43-6.71,4.8-10.24,6.9
		c-3.74,2.22-7.6,4.23-11.32,6.49c3.17-0.31,6.17-1.97,9.03-3.26c3.45-1.55,6.83-3.13,10.08-5.08c6.72-4.03,12.99-8.75,19.85-12.55
		c0.28-0.15,0.61,0.19,0.49,0.46c-2.72,6.14-8.91,10.16-14.04,14.13c-3.96,3.07-7.82,6.22-11.84,9.16c2.67-0.02,5.31-0.19,7.98-0.31
		c2.27-0.1,4.88-0.07,6.3,2.02c2.19,3.24,2.68,7.77,2.93,11.56c0.35,5.16,0.38,10.37,0.51,15.54c0.15,6,0.13,12-0.02,18
		c-0.28,10.87-0.75,21.76-2.11,32.56c-1.16,9.21-14.88,74.45-18.16,83.16c2.44,0.55,4.91,0.99,7.42,1.17
		c1.02,0.08,2.03,0.1,3.02,0.09c1.87-0.43,3.74-0.86,5.58-1c0.52-1.23,0.98-4.86,1.21-6.09c0.47-2.49,12.95-61,13.34-63.51
		c0.83-5.37,2.65-20.24,2.71-21.1c-0.12-4.74-0.61-23.59-0.61-29.44c0.01-12.53-0.22-25.08,0.24-37.59
		c0.25,3.04,0.43,6.08,0.58,9.12c1.04-6.92,2.85-14.76,8.89-18.98c0.25-0.18,0.62-0.01,0.59,0.32c-0.99,9.24-1.53,18.55-1.06,27.84
		c0.46,9.17,1.91,18.22,3.44,27.26c2.52,14.84,5.63,29.57,9.29,44.16c2.52-0.73,5.06-1.39,7.63-1.91c1.72-0.34,3.42-0.88,5.16-1.13
		c0.89-0.13,1.92-0.53,2.89-0.57c-0.01-0.05-0.02-0.09-0.04-0.14C182.09,198.24,182.11,198.23,182.13,198.21z"/>
	<path class="st3" d="M37.67,184.14c-2.37-3.15-4.81-6.53-6.59-10.07c-0.52-1.03-1.3-2.42-0.75-3.59c0.59-1.24,1.55-2.27,2.51-3.23
		c1.34-1.33,2.81-2.54,4.13-3.9c1.73-1.77,3.1-4.02,4.55-6.02c3.32-4.6,6.56-9.27,9.53-14.11c3.11-5.07,5.85-10.27,8.13-15.77
		c2.21-5.32,4.14-10.75,6.34-16.08c0.89-2.14,1.66-4.48,3.13-6.32c1.14-1.42,2.48-2.64,3.95-3.71c2.42-1.75,5.05-3.2,7.52-4.87
		c-2.88,1.17-5.43,2.83-8.17,4.27c-2.63,1.38-5.2,2.76-6.33,5.58c-0.93,2.33-1.76,4.71-2.77,7.01c-2.38,5.43-5.11,10.7-7.53,16.12
		c-2.21,4.94-5.57,9.6-8.39,14.21c-2.93,4.78-6.09,9.63-9.64,13.98c-3.28,4.02-6.34,8.26-9.97,11.97c-0.89,0.91-1.68,2.02-2.64,2.85
		c0.07-0.01,0.14-0.02,0.22-0.02c1.3-0.05,2.45,1.31,3.24,2.15c1.49,1.58,2.87,3.23,4.43,4.74c1.69,1.63,3.38,3.29,5.14,4.87
		C37.7,184.18,37.68,184.16,37.67,184.14z"/>
	<path class="st3" d="M98.59,265.26c-6.97-3.31-13.86-6.86-21.08-9.61c-5.53-2.11-11.28-3.82-17.17-4.56
		c-3.27-0.42-6.57-0.58-9.86-0.4c-1.81,0.1-3.74,0.53-5.55,0.41c-3.37-0.23,8.34-59.39,9.27-62.08c0.72-2.06,1.8-3.95,2.62-5.96
		c1.03-2.55,2.1-5.09,3.15-7.64c2.25-5.44,4.69-10.79,6.8-16.28c2.04-5.31,3.75-10.72,5.61-16.09c3.14-9.12,6.74-18.5,6.69-28.21
		c-0.13,1.73-0.53,3.5-0.79,4.97c-0.5,2.89-1.26,5.73-1.91,8.58c-2.86,9.95-7.08,19.53-11.07,29.11
		c-4.99,11.98-10.76,23.58-14.92,35.83c0.04,0.09-0.03,0.26-0.14,0.43c-0.75,2.24-13.46,60.5-14.09,62.79
		c5.45-2.6,12.45-3.09,18.02-2.62c8.87,0.73,17.42,3.33,25.85,6.04c8.11,2.61,16.1,5.57,24.3,7.88
		C102.39,267.03,100.48,266.16,98.59,265.26z"/>
	<path class="st3" d="M75.71,68.85c1.45,4.33,2.91,8.66,4.59,12.91c1.18,3.01,2.48,6.01,3.87,8.97c1.59,4.27,3.4,8.45,5.48,12.5
		c0.4,0.57,0.8,1.13,1.21,1.69c0.11,0.15,0.08,0.32-0.01,0.43c0.78,0.99,1.58,1.96,2.44,2.89c-4.34-7.38-7.74-15.28-10.62-23.34
		c-1.65-4.61-3.16-9.26-4.6-13.94c-0.66-2.14-1.31-4.28-1.87-6.44c-0.47-1.8-1.12-3.98-0.7-5.85c0.82-3.65,4.05-6.01,6.95-8.06
		c3.69-2.61,7.72-4.75,11.99-6.23c4.39-1.52,8.99-2.47,13.62-2.93c2.2-0.22,4.64-0.63,6.84-0.31c1.68,0.25,3.6,0.86,5.3,0.41
		c-2.19-1.53-5.2-1.74-7.78-1.76c-3.1-0.03-6.19,0.27-9.26,0.71c-3.48,0.51-6.85,1.23-10.14,2.52c-3.68,1.44-7.19,3.24-10.76,4.91
		c-0.33,0.15-0.66-0.26-0.44-0.55c6.14-7.97,15.04-13.89,24.14-17.98c4.67-2.1,9.6-3.9,14.79-3.86c4.57,0.04,8.89,1.29,13.08,2.99
		c-3.75-2.73-8.04-4.53-12.98-4.78c-8.31-0.43-16.61,3.64-23.49,7.91c-6.57,4.08-12.34,9.39-17.04,15.51
		c-2.37,3.08-4.98,6.49-6.26,10.21c-0.07,0.19-0.11,0.38-0.17,0.57c-0.13,1.27-0.14,2.5,0.09,3.94
		C74.37,64.27,74.95,66.57,75.71,68.85z"/>
	<path class="st0" d="M135.98,62.14c-2.36-3.1-5.22-5.86-8.24-8.3c-5.78-4.65-12.55-7.83-19.75-9.56c-6.62-1.59-13,0.34-18.92,3.39
		c-2.68,1.38-5.43,3.06-7.66,5.1c-1.61,1.47-4.17,3.67-4.71,5.91c-0.71,2.92,0.59,5.16,1.55,7.85c1.27,3.58,2.71,7.09,4.31,10.54
		c0.17,0.37,0.34,0.74,0.51,1.1c0.45,1.17,0.98,2.33,1.54,3.47c4.08,8.13,9.74,15.24,15.05,22.57c4.64-2.13,9.13-4.74,13.59-7.08
		c6.42-3.36,12.54-7.86,17.8-12.83c3.97-3.75,8.46-9.21,8.99-14.86C140.24,67,137.32,63.9,135.98,62.14z"/>
	<path class="st4" d="M133.83,80.28c-4.88,6.19-12.06,11.02-18.81,14.96c-4.84,2.83-10.01,5.74-15.26,8.05
		c0-0.04-0.02-0.08-0.04-0.11c-3.68-3.96-6.52-8.86-9.29-13.46c-1.34-2.23-2.78-4.48-4.12-6.78c-2.75-5.82-5.27-11.78-7.43-17.83
		c-0.62-1.75-1.55-3.3-1.55-5.22c0.01-2.01,1.38-3.53,2.64-4.95c2.66-3,6.3-5.11,9.83-6.92c3.26-1.67,7.29-3.01,10.93-3.44
		c4.16-0.5,8.73,1.16,12.59,2.56c7.29,2.65,13.35,7.08,18.81,12.51c2.51,2.5,4.98,5.78,6.52,8.98c0.93,1.94-0.59,5.01-1.46,6.79
		C136.34,77.13,135.02,78.77,133.83,80.28z"/>
	<path class="st0" d="M139.02,91.32c-1.46,1.33-3.03,2.55-4.6,3.75c-3.35,2.57-6.92,4.85-10.62,6.88c-2.24,1.23-4.54,2.37-6.9,3.4
		c-0.94,0.55-1.91,1.07-2.9,1.54c-2.37,1.12-4.8,2.08-7.25,2.99c2.56-0.62,5.07-1.59,7.47-2.39c4.15-1.38,8.07-3.61,11.81-5.84
		c4.01-2.39,7.79-5.08,11.35-8.1c1-0.86,2.54-2.03,3.82-3.34C140.52,90.63,139.77,90.98,139.02,91.32z"/>
	<path class="st1" d="M41.22,190.59c-0.54-0.18-1.09-0.4-1.65-0.64c-3.59-1.86-6.79-4.15-9.74-7.03c-2-1.95-3.74-4.29-4.92-6.83
		c-0.31-0.68-0.91-1.56-0.89-2.39c1.04-1.64,5.03,3.58,5.81,4.45c1.99,2.25,4.27,4.33,6.49,6.35c2.25,2.05,4.66,3.91,7.15,5.67
		c1.13,0.8,2.29,1.46,3.49,2.14c0.25,0.14,0.79,0.35,1.28,0.57C45.84,192.34,43.53,191.39,41.22,190.59z"/>
	<path class="st4" d="M105.76,272.54c-8.44-0.23-16.89-1.19-25.24-2.38c-8.36-1.19-16.69-3.05-24.94-4.87
		c-4.09-0.9-8.18-1.98-12.14-3.35c-1.95-0.68-3.82-1.42-5.54-2.57c-0.6-0.39-1.18-1.13-1.59-1.98c0.29-0.13,0.58-0.25,0.83-0.34
		c2.14-0.76,4.36-1.25,6.61-1.58c4.84-0.71,9.62-0.5,14.45,0.24c8.57,1.31,16.95,4.16,25.12,7.01c8.3,2.9,16.62,5.7,25.16,7.78
		c2.8,0.68,5.76,1.22,8.77,1.49C113.43,272.48,109.59,272.64,105.76,272.54z"/>
	<path class="st1" d="M181.07,200.64c-1.62,1.55-4.6,2.57-6.15,3.24c-2.84,1.23-5.53,2.33-8.55,3.06c-2.94,0.71-5.89,1.35-8.87,1.85
		c-0.62,0.11-4.28,0.63-6.85,0.67c0.15-0.22,1.56-1.17,1.94-1.37c1.61-0.85,3.23-1.57,4.92-2.23c2.71-1.04,5.46-1.92,8.24-2.75
		c2.9-0.86,5.86-1.39,8.78-2.13c1.58-0.4,3.14-0.77,4.75-1c0.53-0.08,2.71-0.94,2.72-0.27
		C181.83,200.04,181.54,200.34,181.07,200.64z"/>
	<g>
		<path class="st0" d="M94.56,102.6c-0.78-0.02-1.48,0.57-1.75,1.29c-0.28,0.77-0.07,2.15,0.8,2.48
			c-0.59,5.38-3.79,10.83-5.88,15.61c-1.44,3.29-3.38,8.57-2.29,12.44c-0.64,0.1-1.29,0.59-1.34,1.26
			c-0.07,0.89,0.54,1.26,1.26,1.44c-0.13,0.47-0.19,0.83,0.17,1.22c0.38,0.41,0.92,0.55,1.45,0.42c0.42-0.11,0.93-0.63,1.19-0.95
			c0.34-0.42,0.67-1.03,0.62-1.58c0-0.04-0.02-0.05-0.04-0.06c0.68-0.88,0.12-1.85-0.92-1.84c-0.46-5.35,1.25-9.48,3.28-14.43
			c1.77-4.31,3.94-8.46,4.11-13.15c0.06,0.01,0.12-0.02,0.18-0.05C96.86,105.88,96.36,102.63,94.56,102.6z"/>
		<path class="st5" d="M86.65,138.23c-0.58-0.13-0.84-0.55-0.96-1.05c0.12,0.02,0.24,0.04,0.36,0.05c0.86,0.1,1.62-0.08,2.24-0.59
			C88.03,137.38,87.59,138.44,86.65,138.23z"/>
		<path class="st5" d="M87.99,135.48c0.08-0.07,0.21-0.37-0.02-0.29c-0.04,0.01-0.08,0.02-0.12,0.03c0.04-0.06,0.06-0.13,0.05-0.18
			c-0.01-0.05-0.01-0.1-0.01-0.16c1.01,0.29,0.53,1.7-0.58,1.85c-0.41,0.05-0.83,0-1.23-0.06c-0.37-0.06-0.73-0.16-1.05-0.36
			c-0.2-0.12-0.31-0.32-0.39-0.54c-0.23-0.63,0.42-0.94,0.91-1.06c0.05,0.16,0.1,0.33,0.17,0.48c-0.13-0.01-0.25-0.02-0.38-0.02
			c-0.07,0-0.28,0.18-0.2,0.26C85.9,136.2,87.19,136.2,87.99,135.48z"/>
		<path class="st5" d="M87.18,135.34c-0.17,0.01-0.35,0.01-0.51,0c0-0.03,0.01-0.06,0-0.08c-1.86-5.32,0.85-11.41,3.03-16.19
			c1.94-4.25,4.94-9.7,4.36-14.56c0.02-0.09,0.04-0.18,0.04-0.28c0-0.01,0-0.01,0-0.02c0.14,0.05,0.25,0.21,0.33,0.32
			c0.21,0.29,0.32,0.67,0.46,1c0.06,0.14,0.08,0.29,0.09,0.44C94.22,116.2,85.28,124.86,87.18,135.34z"/>
		<path class="st5" d="M95.43,106.25c0.2-0.85,0-2.43-0.88-2.71c-0.38-0.12-0.88,0.26-1,0.6c-0.1,0.26,0.01,0.53,0.01,0.8
			c0.01,0.18,0.07,0.33,0.13,0.48c0,0.09-0.02,0.19-0.02,0.28c-0.23-0.37-0.39-0.82-0.46-1.18c-0.1-0.45,0.14-1.09,0.58-1.29
			c0.35-0.16,0.75,0.01,1.04,0.21C95.44,103.84,96.13,105.64,95.43,106.25z"/>
	</g>
	<g>
		<path class="st0" d="M111.64,102.98c-0.78-0.01-1.48,0.57-1.75,1.29c-0.28,0.77-0.07,2.15,0.8,2.47
			c-0.59,5.38-3.79,10.83-5.88,15.61c-1.44,3.29-3.37,8.57-2.29,12.45c-0.64,0.1-1.29,0.59-1.34,1.26
			c-0.07,0.89,0.54,1.26,1.26,1.44c-0.14,0.47-0.19,0.83,0.17,1.22c0.38,0.41,0.92,0.55,1.45,0.42c0.42-0.1,0.93-0.63,1.19-0.95
			c0.34-0.42,0.67-1.03,0.62-1.58c0-0.04-0.02-0.05-0.05-0.06c0.68-0.88,0.12-1.85-0.92-1.84c-0.46-5.35,1.25-9.48,3.28-14.43
			c1.77-4.31,3.94-8.46,4.11-13.15c0.06,0.01,0.13-0.02,0.18-0.04C113.94,106.27,113.44,103.02,111.64,102.98z"/>
		<path class="st5" d="M103.73,138.62c-0.58-0.12-0.84-0.55-0.96-1.05c0.12,0.02,0.24,0.04,0.36,0.05c0.86,0.1,1.62-0.08,2.24-0.59
			C105.12,137.76,104.67,138.82,103.73,138.62z"/>
		<path class="st5" d="M105.07,135.86c0.08-0.08,0.22-0.37-0.02-0.29c-0.04,0.01-0.08,0.02-0.12,0.04c0.04-0.06,0.06-0.13,0.05-0.18
			c0-0.05-0.01-0.1-0.01-0.16c1.01,0.29,0.53,1.7-0.58,1.85c-0.41,0.06-0.83,0-1.23-0.06c-0.37-0.05-0.73-0.16-1.05-0.35
			c-0.2-0.13-0.31-0.32-0.39-0.54c-0.23-0.63,0.42-0.94,0.91-1.06c0.05,0.16,0.1,0.33,0.17,0.49c-0.13-0.02-0.25-0.02-0.37-0.02
			c-0.07,0-0.28,0.18-0.2,0.26C102.99,136.58,104.27,136.58,105.07,135.86z"/>
		<path class="st5" d="M104.26,135.72c-0.17,0.01-0.35,0.02-0.51,0c0-0.03,0.01-0.06,0-0.08c-1.86-5.32,0.85-11.41,3.03-16.19
			c1.94-4.25,4.93-9.7,4.36-14.56c0.02-0.09,0.04-0.18,0.04-0.27c0-0.01,0-0.02,0-0.02c0.14,0.05,0.25,0.21,0.33,0.32
			c0.21,0.29,0.32,0.67,0.46,1c0.06,0.14,0.08,0.29,0.1,0.44C111.3,116.58,102.36,125.24,104.26,135.72z"/>
		<path class="st5" d="M112.52,106.63c0.2-0.85,0-2.43-0.88-2.71c-0.38-0.12-0.88,0.26-1.01,0.6c-0.1,0.26,0.01,0.53,0.01,0.8
			c0.01,0.18,0.07,0.33,0.13,0.48c0,0.09-0.02,0.19-0.02,0.28c-0.23-0.37-0.39-0.82-0.47-1.18c-0.1-0.45,0.14-1.09,0.58-1.29
			c0.35-0.16,0.75,0.01,1.04,0.21C112.52,104.22,113.22,106.02,112.52,106.63z"/>
	</g>
	<path class="st0" d="M126.43,65.86c-0.06,0.06-0.1,0.12-0.1,0.17c-0.08,3.41-0.65,6.94-1.21,10.31c-0.6,3.57-1.72,7.87-3.58,11.05
		c-4.23-1.73-9.06-1.56-13.46-0.66c-2.09,0.43-4.05,1.54-5.91,2.53c-0.87,0.47-1.71,1.05-2.52,1.61c-0.46,0.31-2.13,1.23-2.98,2.03
		c0.48-0.22,0.96-0.44,1.45-0.65c0.4-0.17,0.8-0.34,1.2-0.52c3.05-1.97,6.25-3.57,9.93-4.25c2.89-0.53,5.61-0.28,8.33,0.22
		c1.79-0.01,3.63,0.04,5.34,0.38c-0.01-0.05-0.03-0.09-0.08-0.12c-0.24-0.12-0.48-0.23-0.72-0.35c1.85-2.92,2.66-6.6,3.39-9.94
		c0.71-3.22,1.15-6.71,1.22-10.08C126.65,67.02,126.56,66.43,126.43,65.86z"/>
</g>
</svg>
